<?xml version="1.0" encoding="UTF-8"?>
<svg width="49px" height="49px" viewBox="0 0 49 49" version="1.1" xmlns="http://www.w3.org/2000/svg" xmlns:xlink="http://www.w3.org/1999/xlink">
    <!-- Generator: Sketch 51.1 (57501) - http://www.bohemiancoding.com/sketch -->
    <title>Group 4</title>
    <desc>Created with Sketch.</desc>
    <defs></defs>
    <g id="网页" stroke="none" stroke-width="1" fill="none" fill-rule="evenodd">
        <g id="关于我们" transform="translate(-974.000000, -475.000000)">
            <g id="Group-5" transform="translate(495.000000, 368.000000)">
                <g id="Group-4" transform="translate(479.000000, 107.000000)">
                    <rect id="Rectangle-24-Copy-2" fill="#FF8E00" x="0" y="0" width="48.8" height="48.8"></rect>
                    <rect id="Rectangle-24-Copy-3" fill="#012732" x="4" y="4" width="40.8" height="40.8"></rect>
                    <path d="M19.0624,14.4368 L22.8928,14.4368 L30.7552,35 L27.1552,35 L25.2832,29.8448 L16.672,29.8448 L14.8,35 L11.2,35 L19.0624,14.4368 Z M17.68,27.08 L24.2752,27.08 L21.0496,18.0656 L20.9344,18.0656 L17.68,27.08 Z M34.7008,14.0336 C35.3344,14.0336 35.8816,14.2352 36.3136,14.6384 C36.7168,15.0416 36.9472,15.56 36.9472,16.1936 C36.9472,16.8272 36.7168,17.3744 36.2848,17.7776 C35.8528,18.1808 35.3344,18.3824 34.7008,18.3824 C34.0672,18.3824 33.5488,18.1808 33.1168,17.7776 C32.6848,17.3456 32.4832,16.8272 32.4832,16.1936 C32.4832,15.56 32.6848,15.0416 33.1168,14.6384 C33.5488,14.2352 34.0672,14.0336 34.7008,14.0336 Z M33.0592,20.1104 L36.3424,20.1104 L36.3424,35 L33.0592,35 L33.0592,20.1104 Z" id="Ai" fill="#FF8E00"></path>
                </g>
            </g>
        </g>
    </g>
</svg>