<?xml version="1.0" encoding="UTF-8"?>
<svg width="22px" height="22px" viewBox="0 0 22 22" version="1.1" xmlns="http://www.w3.org/2000/svg" xmlns:xlink="http://www.w3.org/1999/xlink">
    <!-- Generator: Sketch 51.1 (57501) - http://www.bohemiancoding.com/sketch -->
    <title>dribbble</title>
    <desc>Created with Sketch.</desc>
    <defs></defs>
    <g id="网页" stroke="none" stroke-width="1" fill="none" fill-rule="evenodd">
        <g id="关于我们" transform="translate(-561.000000, -1407.000000)" fill="#FFFFFF" fill-rule="nonzero" stroke="#FFFFFF" stroke-width="0.3">
            <g id="dribbble" transform="translate(562.000000, 1408.000000)">
                <path d="M10,20 C4.48625,20 0,15.51375 0,10 C0,4.48625 4.48625,0 10,0 C15.514375,0 20,4.48625 20,10 C20,15.51375 15.514375,20 10,20 Z M18.43375,11.36875 C18.14125,11.27625 15.79,10.575 13.113125,11.00375 C14.230625,14.07375 14.685,16.574375 14.7725,17.09375 C16.68875,15.798125 18.053125,13.745625 18.43375,11.36875 Z M13.33625,17.875625 C13.209375,17.12625 12.713125,14.514375 11.51375,11.398125 C11.495,11.404375 11.47625,11.410625 11.4575,11.416875 C6.64,13.095625 4.91,16.436875 4.756875,16.750625 C6.205,17.88 8.025,18.55375 10,18.55375 C11.183125,18.55375 12.310625,18.311875 13.33625,17.875 L13.33625,17.875625 Z M3.654375,15.724375 C3.848125,15.393125 6.191875,11.511875 10.5975,10.0875 C10.70875,10.05125 10.82125,10.0175 10.934375,9.98625 C10.72,9.50125 10.48625,9.015 10.241875,8.536875 C5.97625,9.81375 1.836875,9.76 1.463125,9.7525 C1.460625,9.839375 1.45875,9.92625 1.45875,10.01375 C1.45875,12.2075 2.290625,14.210625 3.654375,15.725 L3.654375,15.724375 Z M1.63875,8.26375 C2.020625,8.26875 5.54,8.284375 9.535,7.223125 C8.12,4.7075 6.593125,2.591875 6.368125,2.283125 C3.97875,3.41 2.1925,5.613125 1.63875,8.26375 Z M7.998125,1.70875 C8.234375,2.025 9.785625,4.1375 11.185,6.70875 C14.2225,5.570625 15.508125,3.841875 15.661875,3.623125 C14.15375,2.285 12.17,1.470625 10,1.470625 C9.310625,1.470625 8.640625,1.553125 7.998125,1.708125 L7.998125,1.70875 Z M16.611875,4.61125 C16.431875,4.855 15.000625,6.69 11.8425,7.979375 C12.04125,8.38625 12.231875,8.8 12.409375,9.21625 C12.4725,9.36375 12.53375,9.510625 12.593125,9.656875 C15.435,9.299375 18.259375,9.8725 18.540625,9.931875 C18.521875,7.915625 17.80125,6.064375 16.611875,4.61125 Z" id="Shape"></path>
            </g>
        </g>
    </g>
</svg>