<?xml version="1.0" encoding="UTF-8"?>
<svg width="45px" height="48px" viewBox="0 0 45 48" version="1.1" xmlns="http://www.w3.org/2000/svg" xmlns:xlink="http://www.w3.org/1999/xlink">
    <!-- Generator: Sketch 51.1 (57501) - http://www.bohemiancoding.com/sketch -->
    <title>pdf</title>
    <desc>Created with Sketch.</desc>
    <defs>
        <path d="M36.9678571,48 L0.8,48 C0.3581722,48 7.20242115e-16,47.6418278 6.66133815e-16,47.2 L0,42.0738444 L0,0.8 C-5.41083001e-17,0.3581722 0.3581722,4.30000994e-15 0.8,4.21884749e-15 L27.5073087,0 L37.7678571,9.7227256 L37.7678571,47.2 C37.7678571,47.6418278 37.4096849,48 36.9678571,48 Z" id="path-1"></path>
    </defs>
    <g id="网页" stroke="none" stroke-width="1" fill="none" fill-rule="evenodd">
        <g id="关于我们" transform="translate(-1094.000000, -476.000000)">
            <g id="Group-5" transform="translate(495.000000, 368.000000)">
                <g id="pdf" transform="translate(599.000000, 108.000000)">
                    <g id="Shape" transform="translate(4.017857, 0.000000)">
                        <mask id="mask-2" fill="white">
                            <use xlink:href="#path-1"></use>
                        </mask>
                        <use id="Mask" fill="#CE1D1D" fill-rule="nonzero" xlink:href="#path-1"></use>
                        <polygon fill="#F76969" fill-rule="nonzero" mask="url(#mask-2)" points="27.3214286 0 27.3214286 9.6 37.7678571 9.6"></polygon>
                    </g>
                    <path d="M2.4,23.2 L42.6,23.2 C43.9254834,23.2 45,24.2745166 45,25.6 L45,40 C45,41.3254834 43.9254834,42.4 42.6,42.4 L2.4,42.4 C1.0745166,42.4 -1.16994273e-15,41.3254834 -1.33226763e-15,40 L4.4408921e-16,25.6 C2.8176431e-16,24.2745166 1.0745166,23.2 2.4,23.2 Z" id="Shape" fill="#F45858" fill-rule="nonzero"></path>
                    <path d="M11.953439,26.4 C13.224335,26.4 14.1863327,26.7317058 14.8394321,27.3950053 C15.4925314,28.0583048 15.8190811,28.9877084 15.8190811,30.182656 C15.8190811,31.3778836 15.4925314,32.3100883 14.8394321,32.9792701 C14.1863327,33.648732 13.224335,33.9773006 11.953439,33.9652559 L8.10544814,33.9652559 L8.10544814,39.1999439 L6.42857143,39.1999439 L6.42857143,26.4 L11.953439,26.400056 L11.953439,26.4 Z M11.3885963,32.5310948 C12.3417683,32.5431395 13.038996,32.3459423 13.4802794,31.9395033 C13.9215627,31.5333444 14.1422044,30.9476353 14.1422044,30.182656 C14.1422044,29.4179568 13.9215627,28.8353288 13.4802794,28.4347721 C13.038996,28.0344955 12.3417684,27.8342171 11.3885963,27.8342171 L8.10544814,27.8342171 L8.10544814,32.5310948 L11.3885963,32.5310948 Z M22.1911017,26.4 C24.1327484,26.4 25.627006,26.9020124 26.674485,27.9059252 C27.721742,28.909838 28.2455092,30.4397405 28.2455092,32.4952407 C28.2455092,33.5708056 28.1277226,34.5240745 27.8924825,35.3545995 C27.6569649,36.1854045 27.2923371,36.8845581 26.7980998,37.4520041 C26.3038625,38.0197862 25.6741872,38.4531158 24.9094071,38.7517126 C24.1443495,39.0505895 23.2383587,39.1998879 22.1911017,39.1998879 L17.8665248,39.1998879 L17.8665248,26.4 L22.1911017,26.4 Z M22.3323124,37.7657829 C22.5204267,37.7657829 22.7559444,37.7508811 23.0383657,37.7209093 C23.320787,37.6912737 23.6208597,37.6195096 23.9386393,37.5057851 C24.2563633,37.3923968 24.5710344,37.2279164 24.8829301,37.0127922 C25.1946038,36.7976681 25.4743053,36.5049535 25.7213685,36.1343686 C25.9684871,35.7640637 26.1714775,35.3007624 26.3303395,34.745025 C26.4892015,34.1892315 26.5686325,33.5169685 26.5686325,32.7282359 C26.5686325,31.9635367 26.4950298,31.279229 26.3479908,30.6755368 C26.2007299,30.0721807 25.9596615,29.5581796 25.6242861,29.1338136 C25.2889108,28.7097277 24.8564531,28.3870414 24.3269686,28.1657548 C23.7973731,27.9447484 23.1442737,27.8341051 22.367615,27.8341051 L19.5434016,27.8341051 L19.5434016,37.7656708 L22.3323124,37.7656708 L22.3323124,37.7657829 Z M38.5714286,26.4 L38.5714286,27.8342171 L31.9698297,27.8342171 L31.9698297,31.9036493 L37.7595228,31.9036493 L37.7595228,33.3378664 L31.9698297,33.3378664 L31.9698297,39.2 L30.2929529,39.2 L30.2929529,26.4 L38.5714286,26.4 Z" id="Shape" fill="#FFFFFF" fill-rule="nonzero"></path>
                </g>
            </g>
        </g>
    </g>
</svg>