<?xml version="1.0" encoding="UTF-8"?>
<svg width="49px" height="49px" viewBox="0 0 49 49" version="1.1" xmlns="http://www.w3.org/2000/svg" xmlns:xlink="http://www.w3.org/1999/xlink">
    <!-- Generator: Sketch 51.1 (57501) - http://www.bohemiancoding.com/sketch -->
    <title>Group 3</title>
    <desc>Created with Sketch.</desc>
    <defs></defs>
    <g id="网页" stroke="none" stroke-width="1" fill="none" fill-rule="evenodd">
        <g id="关于我们" transform="translate(-856.000000, -475.000000)">
            <g id="Group-5" transform="translate(495.000000, 368.000000)">
                <g id="Group-3" transform="translate(361.000000, 107.000000)">
                    <rect id="Rectangle-24" fill="#04D2FD" x="0" y="0" width="48.8" height="48.8"></rect>
                    <rect id="Rectangle-24-Copy" fill="#012732" x="4" y="4" width="40.8" height="40.8"></rect>
                    <path d="M9.216,14.4368 L17.7408,14.4368 C22.6944,14.4368 25.2,16.5392 25.2,20.744 C25.2,24.9776 22.6944,27.1088 17.6832,27.1088 L12.5856,27.1088 L12.5856,35 L9.216,35 L9.216,14.4368 Z M12.5856,17.3168 L12.5856,24.2288 L17.4816,24.2288 C18.9792,24.2288 20.0736,23.9408 20.7648,23.4224 C21.456,22.8752 21.8016,21.9824 21.8016,20.744 C21.8016,19.5056 21.4272,18.6416 20.736,18.1232 C20.0448,17.576 18.9504,17.3168 17.4816,17.3168 L12.5856,17.3168 Z M33.408,19.7072 C37.3248,19.7072 39.4848,21.2624 39.8304,24.4304 L36.6336,24.4304 C36.4032,23.6816 36.0576,23.1344 35.5968,22.8464 C35.1072,22.5296 34.3584,22.3856 33.3504,22.3856 C32.4864,22.3856 31.824,22.5008 31.392,22.76 C30.8736,23.0192 30.6432,23.4224 30.6432,23.9984 C30.6432,24.4592 31.0176,24.8912 31.824,25.2368 C32.3136,25.4384 33.2928,25.7264 34.7904,26.1008 C36.4608,26.504 37.728,26.9648 38.5344,27.512 C39.7152,28.2608 40.32,29.3264 40.32,30.6512 C40.32,33.8192 38.0736,35.4032 33.6096,35.4032 C29.4624,35.4032 27.2448,33.6464 26.928,30.1616 L30.1248,30.1616 C30.2976,31.112 30.6432,31.7744 31.1328,32.1776 C31.6224,32.5232 32.4,32.7248 33.4944,32.7248 C35.7984,32.7248 36.9504,32.0912 36.9504,30.8816 C36.9504,30.1904 36.5184,29.6432 35.6544,29.24 C35.1936,29.0096 34.2144,28.7504 32.7168,28.4048 C30.96,28.0016 29.7216,27.5696 29.0016,27.1088 C27.8496,26.3888 27.2736,25.3808 27.2736,24.0848 C27.2736,22.7024 27.8208,21.6368 28.9728,20.888 C30.096,20.0816 31.5648,19.7072 33.408,19.7072 Z" id="Ps" fill="#04D2FD"></path>
                </g>
            </g>
        </g>
    </g>
</svg>