<?xml version="1.0" encoding="UTF-8"?>
<svg width="53px" height="48px" viewBox="0 0 53 48" version="1.1" xmlns="http://www.w3.org/2000/svg" xmlns:xlink="http://www.w3.org/1999/xlink">
    <!-- Generator: Sketch 51.1 (57501) - http://www.bohemiancoding.com/sketch -->
    <title>sk copy 4</title>
    <desc>Created with Sketch.</desc>
    <defs></defs>
    <g id="网页" stroke="none" stroke-width="1" fill="none" fill-rule="evenodd">
        <g id="关于我们" transform="translate(-853.000000, -1020.000000)">
            <g id="Group-5" transform="translate(495.000000, 912.000000)">
                <g id="sk-copy-4" transform="translate(357.000000, 108.000000)">
                    <g id="Group" transform="translate(27.529412, 0.000000)">
                        <polygon id="Path-12" fill="#FBCA0E" points="0 0 15.68117 16.7474851 15.68117 1.56783425"></polygon>
                        <polygon id="Path-13" fill="#FD9804" points="15.6826103 1.59383847 15.6826103 16.7486951 26.2837469 16.7486951"></polygon>
                        <polygon id="Path-14" fill="#F8770E" points="15.7088913 16.7584477 0.0175131743 47.3585019 26.3389122 16.7584477"></polygon>
                    </g>
                    <g id="Group-Copy" transform="translate(21.845201, 24.000000) scale(-1, 1) translate(-21.845201, -24.000000) translate(0.139319, 0.000000)">
                        <polygon id="Path-12" fill="#FBCA0E" points="16.0216718 0 31.7028419 16.7474851 31.7028419 1.56783425"></polygon>
                        <polygon id="Path-13" fill="#FD9804" points="31.7042821 1.59383847 31.7042821 16.7486951 42.3054187 16.7486951"></polygon>
                        <polygon id="Path-14" fill="#F8770E" points="31.7305632 16.7584477 16.0003787 47.344445 42.360584 16.7584477"></polygon>
                        <polygon id="Path-2" fill="#FEEEB2" points="15.9593101 0.035056772 31.7520548 16.760713 0.269352682 16.760713"></polygon>
                    </g>
                    <polygon id="Path-15" fill="#FDB100" points="11.8094133 16.7511455 43.2763107 16.7811549 27.542862 47.3599258"></polygon>
                </g>
            </g>
        </g>
    </g>
</svg>