<?xml version="1.0" standalone="no"?><!DOCTYPE svg PUBLIC "-//W3C//DTD SVG 1.1//EN" "http://www.w3.org/Graphics/SVG/1.1/DTD/svg11.dtd"><svg t="1531315273896" class="icon" style="" viewBox="0 0 1024 1024" version="1.1" xmlns="http://www.w3.org/2000/svg" p-id="758" xmlns:xlink="http://www.w3.org/1999/xlink" width="200" height="200"><defs><style type="text/css"></style></defs><path d="M123.419756 667.966002l344.551389 229.688737v-205.114492l-190.852653-127.405757z m-35.435183-82.279837L198.276123 511.963431l-110.29155-73.722734v147.408899z m467.971144 311.968574l344.55139-229.688737-153.698736-102.831512-190.852654 127.405757v205.114492zM511.963431 615.965145L667.380901 511.963431 511.963431 407.961717 356.545961 511.963431z m-234.844939-157.136204l190.852653-127.405757V126.308692L123.419756 355.997429z m548.532247 53.13449l110.291551 73.722734v-147.408899z m-78.842368-53.13449l153.698736-102.831512-344.55139-229.688737v205.114492zM1023.926862 355.96086v311.968574c0 14.298407-7.42347 28.560246-19.418041 36.568816l-467.971145 311.968574c-7.42347 4.571102-16.017142 7.42347-24.574245 7.42347s-17.150775-2.852368-24.574245-7.42347L19.418042 704.49825a44.723663 44.723663 0 0 1-19.418042-36.568816V355.96086c0-14.298407 7.42347-28.560246 19.418042-36.568817L487.389186 7.42347C494.812656 2.852368 503.406328 0 511.963431 0s17.150775 2.852368 24.574245 7.42347l467.971145 311.968573c11.994572 8.008571 19.418042 22.270409 19.418041 36.568817z" fill="#2c2c2c" p-id="759"></path></svg>