<?xml version="1.0" encoding="UTF-8"?>
<svg width="20px" height="20px" viewBox="0 0 20 20" version="1.1" xmlns="http://www.w3.org/2000/svg" xmlns:xlink="http://www.w3.org/1999/xlink">
    <!-- Generator: Sketch 51.1 (57501) - http://www.bohemiancoding.com/sketch -->
    <title>Group 6</title>
    <desc>Created with Sketch.</desc>
    <defs></defs>
    <g id="网页" stroke="none" stroke-width="1" fill="none" fill-rule="evenodd">
        <g id="关于我们" transform="translate(-518.000000, -1408.000000)" fill="#FFFFFF" fill-rule="nonzero">
            <g id="Group-6" transform="translate(518.000000, 1408.000000)">
                <rect id="Rectangle-5" fill-opacity="0.005" x="0" y="0" width="20" height="20"></rect>
                <g id="np_basketball_6170_000000" transform="translate(1.000000, 1.000000)">
                    <g id="np_website_1082972_000000">
                        <path d="M17.1,0 L0.9,0 C0.36,0 0,0.36 0,0.9 L0,17.1 C0,17.55 0.36,18 0.9,18 L17.1,18 C17.55,18 18,17.55 18,17.1 L18,0.9 C18,0.36 17.55,0 17.1,0 Z M6.3,1.8 C6.84,1.8 7.2,2.16 7.2,2.7 C7.2,3.24 6.84,3.6 6.3,3.6 C5.76,3.6 5.4,3.15 5.4,2.7 C5.4,2.16 5.76,1.8 6.3,1.8 Z M2.7,1.8 C3.24,1.8 3.6,2.16 3.6,2.7 C3.6,3.24 3.24,3.6 2.7,3.6 C2.16,3.6 1.8,3.15 1.8,2.7 C1.8,2.16 2.16,1.8 2.7,1.8 Z M16.2,16.2 L1.8,16.2 L1.8,5.4 L16.2,5.4 L16.2,16.2 Z" id="Shape"></path>
                    </g>
                </g>
            </g>
        </g>
    </g>
</svg>