<?xml version="1.0" encoding="UTF-8"?>
<svg width="24px" height="17px" viewBox="0 0 24 17" version="1.1" xmlns="http://www.w3.org/2000/svg" xmlns:xlink="http://www.w3.org/1999/xlink">
    <!-- Generator: Sketch 51.1 (57501) - http://www.bohemiancoding.com/sketch -->
    <title>np_menu_705116_000000 copy</title>
    <desc>Created with Sketch.</desc>
    <defs></defs>
    <g id="-" stroke="none" stroke-width="1" fill="none" fill-rule="evenodd">
        <g id="np_menu_705116_000000-copy" fill="#FFFFFF" fill-rule="nonzero">
            <path d="M1.2,0 C0.53752,0 0,0.543919048 0,1.21428571 C0,1.88465238 0.53752,2.42857143 1.2,2.42857143 L22.8,2.42857143 C23.46248,2.42857143 24,1.88465238 24,1.21428571 C24,0.543919048 23.46248,0 22.8,0 L1.2,0 Z M1.2,7.28571429 C0.53752,7.28571429 0,7.82963333 0,8.5 C0,9.17036667 0.53752,9.71428571 1.2,9.71428571 L22.8,9.71428571 C23.46248,9.71428571 24,9.17036667 24,8.5 C24,7.82963333 23.46248,7.28571429 22.8,7.28571429 L1.2,7.28571429 Z M1.2,14.5714286 C0.53752,14.5714286 0,15.1153476 0,15.7857143 C0,16.456081 0.53752,17 1.2,17 L22.8,17 C23.46248,17 24,16.456081 24,15.7857143 C24,15.1153476 23.46248,14.5714286 22.8,14.5714286 L1.2,14.5714286 Z" id="Shape"></path>
        </g>
    </g>
</svg>