<?xml version="1.0" encoding="UTF-8"?>
<svg width="10px" height="10px" viewBox="0 0 10 10" version="1.1" xmlns="http://www.w3.org/2000/svg" xmlns:xlink="http://www.w3.org/1999/xlink">
    <!-- Generator: Sketch 51.1 (57501) - http://www.bohemiancoding.com/sketch -->
    <title>Combined Shape</title>
    <desc>Created with Sketch.</desc>
    <defs></defs>
    <g id="Page-1" stroke="none" stroke-width="1" fill="none" fill-rule="evenodd" fill-opacity="0.5">
        <g id="极验制造" transform="translate(-150.000000, -534.000000)" fill="#FFFFFF" fill-rule="nonzero">
            <g id="Group-13" transform="translate(87.000000, 484.000000)">
                <path d="M71.2137367,50.9841146 C71.0567613,50.9839699 70.8997859,50.9838252 70.7428105,50.9836805 C70.2794547,50.9832549 69.8161098,50.9828294 69.3527539,50.9824038 C69.0853128,50.9821637 68.8635343,50.7540622 68.8653015,50.4877254 C68.8670795,50.2190863 69.0924033,49.9998778 69.3598226,50.0001179 C69.3781487,50.0001397 69.3964639,50.0001506 69.4147791,50.0001725 C69.9829209,50.0006962 70.5510628,50.00122 71.1192047,50.0017438 C71.564141,50.0021524 72.0090673,50.0025611 72.4540028,50.0029697 C72.4721918,50.0009651 72.4906329,49.9999942 72.5092613,50.0001179 C72.7627154,50.0017965 72.972149,50.2026367 72.9947029,50.4500761 C72.9961174,50.465793 72.99682,50.4816767 72.9967137,50.4976988 C72.9967003,50.5152554 72.9966804,50.5325134 72.9966701,50.5497812 C72.9961356,51.1181037 72.995612,51.6864372 72.9950884,52.2547597 C72.994663,52.7182629 72.9942375,53.1817552 72.9938012,53.6452584 C72.9935503,53.9127737 72.7655431,54.1346337 72.4992801,54.1328659 C72.2307154,54.1310873 72.0115767,53.9056919 72.0118276,53.6381875 C72.0118385,53.6198556 72.0118603,53.6015346 72.0118712,53.5832027 C72.0124057,53.0148801 72.0129293,52.4465466 72.013453,51.8782241 C72.0135463,51.7764868 72.0136397,51.6747501 72.0137332,51.5730137 C71.9387741,51.6479263 71.8638167,51.7228377 71.78886,51.7977491 C71.3282095,52.2581315 70.8675371,52.7185139 70.4068866,53.1788963 C69.9008353,53.6846393 69.394784,54.1903824 68.8887327,54.6961363 C68.480257,55.1043709 68.0717813,55.5126055 67.6633056,55.9208292 C67.4953708,56.0886537 67.327447,56.256489 67.1595123,56.4243244 C66.9701535,56.6135688 66.6562427,56.6167442 66.4651931,56.4280344 C66.2756924,56.2408523 66.2724745,55.9223896 66.4614733,55.7335053 C66.4858645,55.7091391 66.5102447,55.684762 66.5346359,55.6603958 C66.8069421,55.3882539 67.0792374,55.116123 67.3515328,54.843992 C67.8121942,54.3836096 68.2728557,53.9232272 68.7335062,53.4628448 C69.2395684,52.9571018 69.7456088,52.4513588 70.251671,51.9456048 C70.5723604,51.6251047 70.8930498,51.3046113 71.2137392,50.9841141 Z M72.0147401,55.4249833 C72.0147401,55.1574571 72.2431837,54.935608 72.5092613,54.9373758 C72.7780004,54.9391544 72.9967137,55.1645498 72.9967137,55.4320541 C72.9967137,55.9076477 72.9967137,56.3832303 72.9967137,56.8588239 C72.9967137,57.1901408 72.9967137,57.5214795 72.9967137,57.8528073 C72.9967137,58.0180347 73.0054732,58.1861319 72.9943903,58.3512066 C72.9732934,58.6655665 72.8830919,58.9888741 72.6937986,59.2453247 C72.5995173,59.373048 72.5047016,59.4923692 72.380095,59.5912416 C72.3021327,59.6530901 72.2239413,59.7162261 72.1373178,59.7658642 C72.052745,59.8143237 71.9639288,59.8500819 71.8737273,59.8873023 C71.6489163,59.9800859 71.4053209,60 71.1644963,60 C70.7392217,60 70.3139361,60 69.8886615,60 C69.1992728,60 68.5098842,60 67.8204846,60 C67.1540581,60 66.4876316,60 65.8212051,60 C65.464817,60 65.1084398,60 64.7520626,60 C64.3044257,60 63.8723879,59.8365839 63.5441543,59.5301024 C63.191715,59.2010334 63,58.7300228 63,58.2502828 C63,57.9098436 63,57.5694044 63,57.2289761 C63,56.5683392 63,55.9077022 63,55.2470762 C63,54.55342 63,53.8597529 63,53.1660967 C63,52.7265996 63,52.2870807 63,51.8475727 C63,51.6349223 63.0102212,51.4202859 63.0777987,51.2164414 C63.1753961,50.9219739 63.3424036,50.6362795 63.5833264,50.4359268 C63.8288743,50.2317222 64.1141615,50.0732274 64.4346065,50.028085 C64.6582504,49.9965934 64.8757201,50.0001179 65.1006512,50.0001179 C65.4252086,50.0001179 65.7497661,50.0001179 66.0743235,50.0001179 C66.565343,50.0001179 67.0563625,50.0001179 67.5473712,50.0001179 C67.8148122,50.0001179 68.0365908,50.2286341 68.0348236,50.4947963 C68.0330456,50.7636209 67.8077218,50.9824038 67.5403025,50.9824038 C67.0529046,50.9824038 66.5655175,50.9824038 66.0781305,50.9824038 C65.7525041,50.9824038 65.4268667,50.9824038 65.1012402,50.9824038 C64.9221026,50.9824038 64.7363108,50.9706299 64.5581222,50.9935339 C64.6016576,50.9879252 64.6451821,50.9823165 64.6887066,50.9766969 C64.5813571,50.9918207 64.4773128,51.0200606 64.3770865,51.0614275 C64.4175894,51.0445141 64.4580923,51.0276116 64.4985951,51.0106983 C64.3967325,51.0541493 64.3017532,51.1100289 64.2142024,51.1778571 C64.2476802,51.1517996 64.281169,51.125742 64.3146578,51.0996845 C64.2322231,51.1650902 64.1586132,51.2395746 64.0941882,51.3227775 C64.1195612,51.2894854 64.1449232,51.2561824 64.1702852,51.2228903 C64.1063947,51.3074027 64.0534999,51.3985822 64.011939,51.4960579 C64.0280834,51.4574408 64.0442169,51.4188238 64.0603613,51.3801958 C64.0190076,51.480443 63.9907767,51.5845204 63.9756576,51.6919149 C63.9814827,51.6498715 63.9872969,51.607839 63.9931111,51.5657956 C63.9744904,51.7107816 63.9819845,51.8605905 63.9819845,52.006504 C63.9819845,52.5163935 63.9819845,53.0262939 63.9819845,53.5361944 C63.9819845,54.2456837 63.9819845,54.9551621 63.9819845,55.6646514 C63.9819845,56.2865512 63.9819845,56.9084401 63.9819845,57.5303399 C63.9819845,57.7187005 63.9819845,57.9070501 63.9819845,58.0954107 C63.9819845,58.21076 63.9783847,58.3267531 63.9931111,58.4414041 C63.9875042,58.3978548 63.9818972,58.3543056 63.9762794,58.3107672 C63.9913984,58.4181509 64.0196294,58.5222282 64.0609831,58.6224864 C64.0440751,58.5819707 64.027178,58.5414549 64.01027,58.5009392 C64.0537072,58.6028342 64.1095691,58.6978438 64.1773757,58.7854224 C64.1513264,58.7519229 64.1252772,58.7184235 64.0992279,58.6849241 C64.1646128,58.767396 64.2390735,58.8410183 64.32225,58.9054638 C64.2889685,58.8800828 64.2556761,58.8547127 64.2223946,58.8293426 C64.3068801,58.8932752 64.3980306,58.9461759 64.4954753,58.9877501 C64.4568705,58.9716115 64.4182657,58.955451 64.37965,58.9393124 C64.4798654,58.9806683 64.5839097,59.0089191 64.6912701,59.024043 C64.64924,59.0182161 64.6072209,59.0124 64.5651909,59.006584 C64.7101307,59.0252215 64.859892,59.017725 65.0057591,59.017725 C65.5154865,59.017725 66.0252248,59.017725 66.5349631,59.017725 C67.244216,59.017725 67.9534688,59.017725 68.6627326,59.017725 C69.2844347,59.017725 69.9061258,59.017725 70.5278279,59.017725 C70.7161286,59.017725 70.9044184,59.017725 71.09273,59.017725 C71.2080317,59.017725 71.3239879,59.021315 71.4386024,59.006584 C71.395067,59.0122036 71.3515425,59.0178123 71.3080071,59.0234319 C71.4153566,59.0082972 71.5194009,58.9800573 71.6196272,58.9386904 C71.5791244,58.9555929 71.5386215,58.9725063 71.4981186,58.9894196 C71.5999812,58.9459686 71.6949715,58.890089 71.7825114,58.8222608 C71.7490335,58.8483183 71.7155338,58.874365 71.682056,58.9004334 C71.7644907,58.8350277 71.8381005,58.7605542 71.9025255,58.6773404 C71.8771526,58.7106325 71.8517906,58.7439246 71.8264176,58.7772276 C71.8903299,58.6927043 71.9432138,58.6015357 71.9847748,58.5040491 C71.9686413,58.5426771 71.9524859,58.5812942 71.9363524,58.6199112 C71.9776952,58.5196749 72.0059371,58.4155866 72.0210561,58.308203 C72.015231,58.3502464 72.0094168,58.3922789 72.0036027,58.4343223 C72.0049335,58.4243816 72.0061552,58.4144299 72.007257,58.4044674 C72.0252886,58.2307724 72.0147401,58.0515778 72.0147401,57.8773481 C72.0147401,57.5500249 72.0147401,57.2226908 72.0147401,56.8953568 C72.0147401,56.4052286 72.0147401,55.9151114 72.0147401,55.4249833 Z" id="Combined-Shape"></path>
            </g>
        </g>
    </g>
</svg>