<?xml version="1.0" encoding="UTF-8"?>
<svg width="77px" height="20px" viewBox="0 0 77 20" version="1.1" xmlns="http://www.w3.org/2000/svg" xmlns:xlink="http://www.w3.org/1999/xlink">
    <!-- Generator: Sketch 51.1 (57501) - http://www.bohemiancoding.com/sketch -->
    <title>Page 1</title>
    <desc>Created with Sketch.</desc>
    <defs>
        <polygon id="path-1" points="0 0.223529412 19.7696008 0.223529412 19.7696008 19.7057941 0 19.7057941"></polygon>
    </defs>
    <g id="Page-1" stroke="none" stroke-width="1" fill="none" fill-rule="evenodd" opacity="0.4">
        <g id="极验制造" transform="translate(-87.000000, -964.000000)">
            <g id="Page-1" transform="translate(87.000000, 964.000000)">
                <g id="Group-3" transform="translate(0.000000, 0.070676)">
                    <mask id="mask-2" fill="white">
                        <use xlink:href="#path-1"></use>
                    </mask>
                    <g id="Clip-2"></g>
                    <path d="M16.4678527,2.9205 C17.0832558,2.9205 17.5834574,3.41402941 17.5834574,4.0205 C17.5834574,4.62667647 17.0832558,5.12020588 16.4678527,5.12020588 C15.8521512,5.12020588 15.3516512,4.62667647 15.3516512,4.0205 C15.3516512,3.41402941 15.8521512,2.9205 16.4678527,2.9205 M9.88494961,11.7790294 C8.86962403,11.7790294 8.0435155,10.9652059 8.0435155,9.96491176 C8.0435155,8.96432353 8.86962403,8.14991176 9.88494961,8.14991176 C10.8999767,8.14991176 11.7263837,8.96432353 11.7263837,9.96491176 C11.7263837,10.9652059 10.8999767,11.7790294 9.88494961,11.7790294 M19.7236395,9.02726471 L13.5054419,9.02726471 C13.084031,7.4455 11.6204341,6.27520588 9.88494961,6.27520588 C7.82087209,6.27520588 6.14089922,7.93020588 6.14089922,9.96491176 C6.14089922,11.9990294 7.82087209,13.6540294 9.88494961,13.6540294 C11.6204341,13.6540294 13.084031,12.4840294 13.5060388,10.9019706 L17.8096822,10.9019706 C17.3381318,14.7990294 13.9641589,17.8307941 9.88494961,17.8307941 C5.48341473,17.8307941 1.90321318,14.3019706 1.90321318,9.96461765 C1.90321318,5.62726471 5.48341473,2.09844118 9.88494961,2.09844118 C11.2357326,2.09844118 12.5092171,2.43167647 13.626314,3.01814706 C13.5120078,3.33108824 13.4493333,3.66844118 13.4493333,4.01991176 C13.4493333,5.6605 14.8031008,6.99520588 16.4672558,6.99520588 C18.1320078,6.99520588 19.4860736,5.6605 19.4860736,4.01991176 C19.4860736,2.37991176 18.1320078,1.0455 16.4672558,1.0455 C15.8605078,1.0455 15.2955426,1.22344118 14.8222016,1.52814706 C13.3687519,0.698441176 11.6822132,0.223441176 9.88494961,0.223441176 C4.43496124,0.223441176 0,4.59314706 0,9.96461765 C0,15.3360882 4.43496124,19.7057941 9.88494961,19.7057941 C15.3352364,19.7057941 19.7696008,15.3360882 19.7696008,9.96461765 C19.7696008,9.64844118 19.7537829,9.33579412 19.7236395,9.02726471" id="Fill-1" fill="#FFFFFF" mask="url(#mask-2)"></path>
                </g>
                <path d="M39.8976097,14.4548529 C39.8976097,14.5404412 39.8782105,14.6025 39.8391136,14.6410294 C39.7997182,14.6795588 39.7325671,14.7069118 39.6373616,14.7242647 C38.8560205,14.8436765 38.0314043,14.9039706 37.1638112,14.9039706 C36.7036019,14.9039706 36.306664,14.8672059 35.9726988,14.7948529 C35.6384353,14.7225 35.3259585,14.5945588 35.0355671,14.4101471 C34.7439818,14.2257353 34.5252182,13.9569118 34.3777841,13.6019118 C34.23035,13.2475 34.1569314,12.8048529 34.1569314,12.2742647 L34.1569314,7.79632353 C34.1569314,7.26661765 34.23035,6.82397059 34.3777841,6.46897059 C34.5252182,6.11397059 34.7439818,5.84485294 35.0355671,5.66102941 C35.3259585,5.47691176 35.6384353,5.34838235 35.9726988,5.27632353 C36.306664,5.20338235 36.7036019,5.16661765 37.1638112,5.16661765 C38.0314043,5.16661765 38.8560205,5.22691176 39.6373616,5.34632353 C39.7325671,5.36367647 39.7997182,5.39132353 39.8391136,5.42926471 C39.8782105,5.46808824 39.8976097,5.53044118 39.8976097,5.61544118 L39.8976097,6.43691176 C39.8976097,6.50544118 39.8713461,6.56544118 39.8191174,6.61632353 C39.7671872,6.6675 39.7063035,6.69338235 39.6373616,6.69338235 L36.9814585,6.69338235 C36.5991446,6.69338235 36.3329275,6.7725 36.1813151,6.93073529 C36.0288074,7.08867647 35.9530012,7.37779412 35.9530012,7.79632353 L35.9530012,9.18220588 L39.480974,9.18220588 C39.5502143,9.18220588 39.6110981,9.20808824 39.6633267,9.25926471 C39.715257,9.31044118 39.741819,9.37014706 39.741819,9.43867647 L39.741819,10.3622059 C39.741819,10.4307353 39.715257,10.4904412 39.6633267,10.5419118 C39.6110981,10.5933824 39.5502143,10.6189706 39.480974,10.6189706 L35.9530012,10.6189706 L35.9530012,12.2742647 C35.9530012,12.6933824 36.0288074,12.9822059 36.1813151,13.1398529 C36.3329275,13.2983824 36.5991446,13.3772059 36.9814585,13.3772059 L39.6373616,13.3772059 C39.7063035,13.3772059 39.7671872,13.4030882 39.8191174,13.4542647 C39.8713461,13.5057353 39.8976097,13.5657353 39.8976097,13.6339706 L39.8976097,14.4548529 Z" id="Fill-4" fill="#FFFFFF"></path>
                <path d="M47.3955593,14.4548529 C47.3955593,14.5404412 47.3761601,14.6025 47.3370632,14.6410294 C47.2976678,14.6795588 47.2308151,14.7069118 47.1353112,14.7242647 C46.3542686,14.8436765 45.5296523,14.9039706 44.6617609,14.9039706 C44.20185,14.9039706 43.8043151,14.8672059 43.4709469,14.7948529 C43.1363849,14.7225 42.8239081,14.5945588 42.5332182,14.4101471 C42.2425283,14.2257353 42.0237647,13.9569118 41.8760322,13.6019118 C41.7282996,13.2475 41.6551795,12.8048529 41.6551795,12.2742647 L41.6551795,7.79632353 C41.6551795,7.26661765 41.7282996,6.82397059 41.8760322,6.46897059 C42.0237647,6.11397059 42.2425283,5.84485294 42.5332182,5.66102941 C42.8239081,5.47691176 43.1363849,5.34838235 43.4709469,5.27632353 C43.8043151,5.20338235 44.20185,5.16661765 44.6617609,5.16661765 C45.5296523,5.16661765 46.3542686,5.22691176 47.1353112,5.34632353 C47.2308151,5.36367647 47.2976678,5.39132353 47.3370632,5.42926471 C47.3761601,5.46808824 47.3955593,5.53044118 47.3955593,5.61544118 L47.3955593,6.43691176 C47.3955593,6.50544118 47.3695942,6.56544118 47.3173655,6.61632353 C47.2654353,6.6675 47.2042531,6.69338235 47.1353112,6.69338235 L44.4794081,6.69338235 C44.0973926,6.69338235 43.8308771,6.7725 43.6792647,6.93073529 C43.526757,7.08867647 43.4512492,7.37779412 43.4512492,7.79632353 L43.4512492,9.18220588 L46.9789236,9.18220588 C47.0484624,9.18220588 47.1090477,9.20808824 47.1612764,9.25926471 C47.2132066,9.31044118 47.2397686,9.37014706 47.2397686,9.43867647 L47.2397686,10.3622059 C47.2397686,10.4307353 47.2132066,10.4904412 47.1612764,10.5419118 C47.1090477,10.5933824 47.0484624,10.6189706 46.9789236,10.6189706 L43.4512492,10.6189706 L43.4512492,12.2742647 C43.4512492,12.6933824 43.526757,12.9822059 43.6792647,13.1398529 C43.8308771,13.2983824 44.0973926,13.3772059 44.4794081,13.3772059 L47.1353112,13.3772059 C47.2042531,13.3772059 47.2654353,13.4030882 47.3173655,13.4542647 C47.3695942,13.5057353 47.3955593,13.5657353 47.3955593,13.6339706 L47.3955593,14.4548529 Z" id="Fill-6" fill="#FFFFFF"></path>
                <path d="M55.1543837,6.25747059 L52.6157713,6.25747059 L52.6157713,14.5439412 C52.6157713,14.6121765 52.5939845,14.6730588 52.5504109,14.7242353 C52.5068372,14.776 52.4507287,14.8012941 52.3811899,14.8012941 L51.6655078,14.8012941 C51.5953721,14.8012941 51.539562,14.776 51.4962868,14.7242353 C51.4530116,14.6730588 51.4309264,14.6121765 51.4309264,14.5439412 L51.4309264,6.25747059 L48.8926124,6.25747059 C48.8227752,6.25747059 48.7621899,6.24011765 48.7102597,6.20658824 C48.6583295,6.17305882 48.6320659,6.12217647 48.6320659,6.05452941 L48.6320659,5.49717647 C48.6320659,5.43011765 48.6583295,5.37511765 48.7102597,5.33247059 C48.7621899,5.29070588 48.8227752,5.26952941 48.8926124,5.26952941 L55.1543837,5.26952941 C55.3191279,5.26952941 55.4015,5.34541176 55.4015,5.49717647 L55.4015,6.05452941 C55.4015,6.18982353 55.3191279,6.25747059 55.1543837,6.25747059" id="Fill-8" fill="#FFFFFF"></path>
                <path d="M62.0953667,14.7627647 C62.0735798,14.7971765 62.0407504,14.8183529 61.9977736,14.8265882 C61.8760062,14.8436471 61.7109636,14.8545294 61.5029442,14.8592353 C61.2946264,14.8633529 61.0710876,14.8689412 60.8326264,14.8783529 C60.5938667,14.8862941 60.3527194,14.8912941 60.1100798,14.8912941 L59.4591612,14.8912941 C58.5393395,14.8912941 57.8469364,14.7071765 57.3825488,14.3395294 C56.9184597,13.9718824 56.6862659,13.3598235 56.6862659,12.5045294 L56.6862659,7.566 C56.6862659,6.71070588 56.9184597,6.09923529 57.3825488,5.73129412 C57.8469364,5.36364706 58.5393395,5.17982353 59.4591612,5.17982353 C59.6498705,5.17982353 59.8647543,5.18188235 60.1032155,5.18570588 C60.3419752,5.19011765 60.5786457,5.19452941 60.8126302,5.19894118 C61.0472116,5.20335294 61.2683628,5.20952941 61.4769791,5.21805882 C61.6852969,5.22688235 61.8589946,5.23952941 61.9977736,5.25688235 C62.0407504,5.26511765 62.0735798,5.28658824 62.0953667,5.32041176 C62.1165566,5.35541176 62.1275992,5.39364706 62.1275992,5.436 L62.1275992,6.07717647 C62.1275992,6.18041176 62.0798473,6.23158824 61.9843434,6.23158824 L59.4719946,6.23158824 C59.1245992,6.23158824 58.8470411,6.25482353 58.6390217,6.30188235 C58.4307039,6.34923529 58.2704364,6.42629412 58.1576225,6.53305882 C58.0442116,6.64041176 57.9687039,6.77688235 57.929607,6.94335294 C57.8905101,7.10982353 57.8711109,7.31805882 57.8711109,7.566 L57.8711109,9.34894118 L61.8670527,9.34894118 C61.9365915,9.34894118 61.9977736,9.37452941 62.0494054,9.42511765 C62.1016341,9.47570588 62.1275992,9.53511765 62.1275992,9.60217647 L62.1275992,10.0833529 C62.1275992,10.151 62.1016341,10.2101176 62.0494054,10.2607059 C61.9977736,10.3115882 61.9365915,10.3365882 61.8670527,10.3365882 L57.8711109,10.3365882 L57.8711109,12.5001176 C57.8711109,12.7407059 57.8905101,12.9465882 57.929607,13.1183529 C57.9687039,13.2898235 58.0442116,13.4289412 58.1576225,13.5368824 C58.2704364,13.6436471 58.4307039,13.7207059 58.6390217,13.7683529 C58.8470411,13.8154118 59.1245992,13.8389412 59.4719946,13.8389412 L61.9843434,13.8389412 C62.0798473,13.8389412 62.1275992,13.8901176 62.1275992,13.9930588 L62.1275992,14.6471765 C62.1275992,14.6904118 62.1165566,14.7289412 62.0953667,14.7627647" id="Fill-10" fill="#FFFFFF"></path>
                <path d="M69.1663543,12.3250882 C69.1663543,12.6330294 69.1183039,12.9392059 69.0230984,13.2427353 C68.9272961,13.5459706 68.7610597,13.8195 68.5223,14.0636176 C68.2835403,14.3071471 67.9555442,14.5065588 67.539207,14.6597941 C67.1222729,14.8139118 66.5931217,14.8915588 65.9511566,14.8915588 C65.4912457,14.8915588 65.0874434,14.8718529 64.7403465,14.8333235 C64.3932496,14.7947941 64.0765946,14.7542059 63.7900829,14.7115588 C63.6769705,14.6945 63.6080287,14.6680294 63.5814667,14.6347941 C63.5558,14.6000882 63.5423698,14.5486176 63.5423698,14.4806765 L63.5423698,13.9671471 C63.5423698,13.8989118 63.5641566,13.8477353 63.6080287,13.8133235 C63.6513039,13.7792059 63.7029357,13.7621471 63.7638194,13.7621471 L63.8032147,13.7621471 C63.9506488,13.7706765 64.1171837,13.7815588 64.3046101,13.7942059 C64.4905442,13.8068529 64.6821488,13.8153824 64.8770364,13.8195 C65.0722225,13.8242059 65.2632302,13.8286176 65.4497612,13.8327353 C65.6362922,13.8374412 65.8031256,13.8389118 65.9511566,13.8389118 C66.3415287,13.8389118 66.6644512,13.8027353 66.9211178,13.7297941 C67.1765907,13.6574412 67.3786411,13.5547941 67.5263736,13.4218529 C67.6738078,13.2897941 67.7776682,13.1292059 67.8388504,12.9412647 C67.8994357,12.7530294 67.9292806,12.5480294 67.9292806,12.3250882 C67.9292806,12.1630294 67.9042109,12.0150882 67.8513853,11.8830294 C67.799455,11.7500882 67.7126062,11.6197941 67.5911372,11.4912647 C67.4696682,11.3630294 67.3091023,11.2283235 67.1094395,11.0874412 C66.9094783,10.9465588 66.662362,10.7859706 66.3677922,10.6062647 L65.1047535,9.8495 C64.5060636,9.48979412 64.0571953,9.12920588 63.7578504,8.76567647 C63.458207,8.40185294 63.3083853,7.96332353 63.3083853,7.45067647 C63.3083853,6.67214706 63.579676,6.09920588 64.1219589,5.73126471 C64.6642419,5.36361765 65.4345403,5.17979412 66.4328543,5.17979412 C66.6232651,5.17979412 66.8250171,5.18391176 67.0378116,5.19214706 C67.2506062,5.20097059 67.4592225,5.21155882 67.6630636,5.2245 C67.8669047,5.23714706 68.0597031,5.25479412 68.2420558,5.27626471 C68.4244085,5.29714706 68.5757225,5.31655882 68.6977884,5.33361765 C68.8455209,5.35891176 68.919238,5.43214706 68.919238,5.55185294 L68.919238,6.10361765 C68.919238,6.24038235 68.8455209,6.30891176 68.6977884,6.30891176 L68.6718233,6.30891176 C68.3853116,6.29126471 68.0358271,6.2745 67.6239667,6.25744118 C67.2115093,6.24038235 66.8142729,6.23155882 66.4328543,6.23155882 C65.7556721,6.23155882 65.267707,6.31744118 64.968362,6.48802941 C64.6684202,6.65920588 64.5191953,6.97979412 64.5191953,7.45067647 C64.5191953,7.60420588 64.5472496,7.74302941 64.6036566,7.86714706 C64.6591682,7.99126471 64.7439279,8.11332353 64.8564434,8.23273529 C64.9692574,8.35273529 65.1160946,8.47420588 65.2975519,8.59861765 C65.4796062,8.72273529 65.6915054,8.85685294 65.934145,9.00273529 L67.1285403,9.70832353 C67.5090636,9.93067647 67.8269124,10.1442059 68.0823853,10.3495 C68.3378581,10.5547941 68.5479667,10.7606765 68.712114,10.9653824 C68.8765597,11.1706765 68.9935519,11.3847941 69.0624938,11.6071471 C69.1317341,11.8292059 69.1663543,12.0689118 69.1663543,12.3250882" id="Fill-12" fill="#FFFFFF"></path>
                <path d="M76.608643,6.25747059 L74.0697322,6.25747059 L74.0697322,14.5439412 C74.0697322,14.6121765 74.0482438,14.6730588 74.0049686,14.7242353 C73.961395,14.776 73.904988,14.8012941 73.8357477,14.8012941 L73.1200655,14.8012941 C73.0499298,14.8012941 72.9938213,14.776 72.9502477,14.7242353 C72.9072709,14.6730588 72.8851857,14.6121765 72.8851857,14.5439412 L72.8851857,6.25747059 L70.3471702,6.25747059 C70.2770345,6.25747059 70.2167477,6.24011765 70.164519,6.20658824 C70.1125888,6.17305882 70.0863252,6.12217647 70.0863252,6.05452941 L70.0863252,5.49717647 C70.0863252,5.43011765 70.1125888,5.37511765 70.164519,5.33247059 C70.2167477,5.29070588 70.2770345,5.26952941 70.3471702,5.26952941 L76.608643,5.26952941 C76.7733872,5.26952941 76.8560578,5.34541176 76.8560578,5.49717647 L76.8560578,6.05452941 C76.8560578,6.18982353 76.7733872,6.25747059 76.608643,6.25747059" id="Fill-14" fill="#FFFFFF"></path>
                <path d="M27.9345554,7.27108824 C28.2550903,6.88579412 28.76335,6.69344118 29.385319,6.69344118 C30.4179547,6.69344118 30.8802531,6.94461765 31.5362453,7.29461765 C31.6633849,7.36255882 31.7770942,7.31314706 31.8570787,7.21814706 C31.9484043,7.11020588 32.2477492,6.69873529 32.3468345,6.54991176 C32.4151795,6.44726471 32.4677066,6.31108824 32.3405671,6.20197059 C31.5338578,5.51020588 30.300664,5.16667647 29.1922221,5.16667647 C28.775288,5.16667647 28.3377609,5.23314706 27.9470903,5.3655 C27.5564198,5.49844118 27.1812686,5.70814706 26.8213384,5.99432353 C26.4611097,6.28079412 26.1725089,6.69138235 25.955536,7.22579412 C25.7385632,7.7605 25.630226,8.39167647 25.630226,9.11785294 L25.630226,10.9655 C25.630226,11.5472647 25.7060322,12.0707941 25.8576446,12.5369706 C26.0095554,13.0031471 26.2071291,13.3796176 26.4500671,13.6655 C26.693005,13.9522647 26.9726523,14.1922647 27.2896058,14.3843235 C27.6065593,14.5766765 27.9148578,14.7116765 28.2142027,14.7887353 C28.5135477,14.8649118 28.9713694,14.9040294 29.2754895,14.9040294 C30.4292957,14.9040294 31.4114934,14.6722647 31.9618345,14.3672647 C32.1089702,14.2857941 32.2041756,14.1572647 32.2041756,13.9866765 L32.2041756,9.51667647 C32.2041756,9.44814706 32.1785089,9.38844118 32.1259818,9.33755882 C32.0740516,9.28667647 32.0128694,9.2605 31.9439275,9.2605 L29.3715903,9.2605 C29.30235,9.2605 29.2414663,9.28579412 29.189536,9.33697059 C29.1373074,9.38873529 29.1107453,9.44844118 29.1107453,9.51667647 L29.1107453,10.4405 C29.1107453,10.5090294 29.1373074,10.5690294 29.189536,10.6202059 C29.2414663,10.6713824 29.30235,10.6969706 29.3715903,10.6969706 L30.4552609,10.6969706 L30.4552609,13.1952059 C30.1896407,13.3043235 29.7410709,13.3549118 29.3778578,13.3549118 C28.8334857,13.3549118 28.2768771,13.1843235 27.9470903,12.8002059 C27.6176019,12.4152059 27.4525593,11.8037353 27.4525593,10.9655 L27.4525593,9.11785294 C27.4525593,8.27138235 27.6131252,7.65579412 27.9345554,7.27108824" id="Fill-16" fill="#FFFFFF"></path>
            </g>
        </g>
    </g>
</svg>