<?xml version="1.0" encoding="UTF-8"?>
<svg width="135px" height="53px" viewBox="0 0 135 53" version="1.1" xmlns="http://www.w3.org/2000/svg" xmlns:xlink="http://www.w3.org/1999/xlink">
    <!-- Generator: Sketch 51.1 (57501) - http://www.bohemiancoding.com/sketch -->
    <title>Group</title>
    <desc>Created with Sketch.</desc>
    <defs></defs>
    <g id="Page-1" stroke="none" stroke-width="1" fill="none" fill-rule="evenodd">
        <g id="极验制造" transform="translate(-58.000000, -42.000000)" fill="#FFFFFF">
            <g id="Group" transform="translate(58.000000, 42.000000)">
                <g id="logo">
                    <path d="M22.72183,6.37062106 C23.8714148,2.82689387 27.2108694,0.263760152 31.1513577,0.263760152 L31.1513577,20.1127482 C31.1513577,28.6389764 24.2119858,35.55085 15.6518367,35.55085 C7.09168763,35.55085 0.152315708,28.6389764 0.152315708,20.1127482 C0.152315708,11.58652 7.09168763,4.67464639 15.6518367,4.67464639 C18.1986608,4.67464639 20.6020157,5.28647676 22.72183,6.37062106 Z M15.6518367,13.4964189 C11.9832014,13.4964189 9.00918484,16.4586504 9.00918484,20.1127482 C9.00918484,23.766846 11.9832014,26.7290776 15.6518367,26.7290776 C19.320472,26.7290776 22.2944886,23.766846 22.2944886,20.1127482 C22.2944886,16.4586504 19.320472,13.4964189 15.6518367,13.4964189 Z M6.63644746,41.9536831 L30.6976061,35.5320629 C31.9636231,40.2381795 29.1596934,45.0754833 24.4348539,46.3364835 L0.373695237,52.7581036 C-0.892321683,48.0519871 1.911608,43.2146832 6.63644746,41.9536831 Z" id="Combined-Shape"></path>
                    <path d="M45.0487683,40.6210678 L45.0487683,44.9802429 L44.4123424,44.9802429 L44.4123424,40.5515989 C44.124643,41.4373277 43.7410438,42.2362203 43.270263,42.9482768 L43,42.2622712 C43.6364259,41.4112768 44.0897704,40.4473955 44.3687516,39.3532599 L43.1394906,39.3532599 L43.1394906,38.7540904 L44.4123424,38.7540904 L44.4123424,37.0607853 L45.0487683,37.0607853 L45.0487683,38.7540904 L46.0949478,38.7540904 L46.0949478,39.3532599 L45.0487683,39.3532599 L45.0487683,39.9263785 C45.4323674,40.3518757 45.8246848,40.8294746 46.2257203,41.3504915 L45.8508392,41.8975593 C45.5369854,41.3765424 45.2754405,40.9510452 45.0487683,40.6210678 Z M46.8883006,38.0072994 L45.8944301,38.0072994 L45.8944301,37.4081299 L49.9832484,37.4081299 L49.9832484,37.8075763 C49.8088852,38.5804181 49.6432401,39.2490565 49.4688768,39.8048079 L50.602238,39.8048079 L50.602238,40.1521525 C50.4191566,41.3418079 50.0181211,42.3491073 49.4078497,43.1653672 C49.8699123,43.6429661 50.4017203,44.0684633 51.0119916,44.4505424 L50.6109562,44.9802429 C49.9919666,44.5807966 49.4601587,44.1379322 49.0068142,43.6429661 C48.4837244,44.1900339 47.8472985,44.6415819 47.0975365,44.9976102 L46.74881,44.4244915 C47.4811357,44.0684633 48.0914071,43.6342825 48.5796242,43.1219492 C48.0565344,42.4272599 47.6642171,41.6457345 47.3939541,40.7860565 C47.176,42.6009322 46.6616284,43.9903107 45.8508392,44.9541921 L45.3713403,44.5373785 C46.3652109,43.3564068 46.8708643,41.4546949 46.8883006,38.8496102 L46.8883006,38.0072994 Z M48.9632234,42.6617175 C49.4601587,42.0017627 49.800167,41.2289209 49.9745303,40.3518757 L48.7191148,40.3518757 C48.8934781,39.8221751 49.0939958,39.0406497 49.3206681,38.0072994 L47.5072902,38.0072994 L47.5072902,38.8496102 C47.5072902,38.9711808 47.498572,39.0840678 47.498572,39.1969548 C47.7078079,40.5342316 48.1960251,41.6891525 48.9632234,42.6617175 Z M59.0224802,39.6050847 C58.7086263,39.9524294 58.3773361,40.2650395 58.0286096,40.5342316 L57.6973194,40.0305819 C58.6737537,39.2751073 59.4322338,38.2938588 59.9553236,37.0868362 L60.5307223,37.0868362 C60.9666305,38.198339 61.7338288,39.1622203 62.814881,39.9958475 L62.4748727,40.5168644 C62.0999916,40.2303051 61.7687015,39.9263785 61.4722839,39.6050847 L61.4722839,40.1434689 L59.0224802,40.1434689 L59.0224802,39.6050847 Z M61.4461294,39.5703503 C60.940476,38.9972316 60.5394405,38.3720113 60.243023,37.6946893 C59.8942965,38.424113 59.5019791,39.0493333 59.0486347,39.5703503 L61.4461294,39.5703503 Z M57.9501461,44.1118814 L60.7835491,44.1118814 C61.1148392,43.1914181 61.4112568,42.0451808 61.6728017,40.6818531 L62.2743549,40.8294746 C62.0302463,42.062548 61.742547,43.1566836 61.3938205,44.1118814 L62.710263,44.1118814 L62.710263,44.7110508 L57.9501461,44.7110508 L57.9501461,44.1118814 Z M58.7522171,40.933678 C59.0311983,41.6544181 59.2753069,42.4880452 59.5019791,43.4258757 L58.961453,43.5561299 C58.7696534,42.7051356 58.5168267,41.8975593 58.211691,41.1160339 L58.7522171,40.933678 Z M60.0948142,40.6818531 C60.3302046,41.3678588 60.5394405,42.1580678 60.7312401,43.0524802 L60.1819958,43.1827345 C60.0250689,42.3751582 59.815833,41.5936328 59.5542881,40.8468418 L60.0948142,40.6818531 Z M56.9737119,38.0246667 L54.8639165,38.0246667 L54.8639165,37.451548 L57.6014196,37.451548 L57.1829478,41.0291977 L57.7234739,41.0291977 C57.7234739,43.0090621 57.6362923,44.1466158 57.4706472,44.4505424 C57.2962839,44.7457853 56.9388392,44.9020904 56.389595,44.9020904 C56.1890772,44.9020904 55.9798413,44.8934068 55.7706054,44.8760395 L55.6049603,44.3202881 C55.910096,44.3550226 56.1280501,44.3723898 56.2501044,44.3723898 C56.6685762,44.3723898 56.9214029,44.233452 57.0085846,43.9729435 C57.0957662,43.6950678 57.1480752,42.9048588 57.1480752,41.5849492 L54.9249436,41.5849492 L55.3346973,38.6064689 L55.910096,38.6412034 L55.5613695,41.0291977 L56.5901127,41.0291977 L56.9737119,38.0246667 Z M56.6511399,42.357791 L56.6511399,42.922226 C56.0757411,43.1393164 55.4305971,43.3129887 54.7069896,43.4519266 L54.6285261,42.8614407 C55.3957244,42.7311864 56.0757411,42.5661977 56.6511399,42.357791 Z M67.9570939,40.0826836 L67.9570939,41.6023164 L70.1715073,41.6023164 L70.1715073,40.0826836 L67.9570939,40.0826836 Z M67.9222213,42.175435 C67.8263215,43.2869379 67.5037495,44.2074011 66.9457871,44.9368249 L66.4662881,44.5113277 C67.0242505,43.7384859 67.3119499,42.7572373 67.3293862,41.5675819 L67.3293862,37.3994463 L73.8244175,37.3994463 L73.8244175,43.9034746 C73.8244175,44.5113277 73.5192818,44.8152542 72.9090104,44.8152542 L71.9064217,44.8152542 L71.7407766,44.1987175 C72.0895031,44.2160847 72.4120752,44.233452 72.7084927,44.233452 C73.0223466,44.233452 73.1879916,44.051096 73.1879916,43.6863842 L73.1879916,42.175435 L70.8166514,42.175435 L70.8166514,44.7197345 L70.1715073,44.7197345 L70.1715073,42.175435 L67.9222213,42.175435 Z M73.1879916,41.6023164 L73.1879916,40.0826836 L70.8166514,40.0826836 L70.8166514,41.6023164 L73.1879916,41.6023164 Z M73.1879916,39.5008814 L73.1879916,38.0072994 L70.8166514,38.0072994 L70.8166514,39.5008814 L73.1879916,39.5008814 Z M70.1715073,38.0072994 L67.9570939,38.0072994 L67.9570939,39.5008814 L70.1715073,39.5008814 L70.1715073,38.0072994 Z M84.7903633,38.7367232 L79.8122923,38.7367232 L79.8122923,40.4300282 L84.7903633,40.4300282 L84.7903633,38.7367232 Z M79.8122923,41.0378814 C79.7687015,42.5922486 79.3589478,43.9295254 78.5743132,45.0497119 L78.1122505,44.6328983 C78.8184217,43.6603333 79.1758664,42.3925254 79.1933027,40.8381582 L79.1933027,38.1201864 L82.0354238,38.1201864 C81.8784969,37.7554746 81.7128518,37.4168136 81.5297704,37.1042034 L82.2010689,37 C82.3579958,37.3299774 82.5149228,37.7033729 82.6718497,38.1201864 L85.4267891,38.1201864 L85.4267891,41.0378814 L79.8122923,41.0378814 Z M90.9526013,40.3345085 C90.6823382,40.7252712 90.3859207,41.0986667 90.0720668,41.4546949 L89.8889854,40.8294746 C90.7956743,39.7179718 91.4495365,38.4501638 91.850572,37.0173672 L92.4172526,37.2778757 C92.1905804,37.9986158 91.9115992,38.6846215 91.5715908,39.327209 L91.5715908,45.023661 L90.9526013,45.023661 L90.9526013,40.3345085 Z M92.2690438,38.537 L94.579357,38.537 L94.579357,37.0434181 L95.1983466,37.0434181 L95.1983466,38.537 L97.578405,38.537 L97.578405,39.1448531 L95.7998998,39.1448531 C96.2009353,40.5776497 96.9071065,41.8541412 97.9184134,42.9743277 L97.5086597,43.486661 C96.4450438,42.2014859 95.704,40.751322 95.3029645,39.1448531 L95.1983466,39.1448531 L95.1983466,42.6269831 L96.5496618,42.6269831 L96.5496618,43.2261525 L95.1983466,43.2261525 L95.1983466,45.0149774 L94.579357,45.0149774 L94.579357,43.2261525 L93.2454781,43.2261525 L93.2454781,42.6269831 L94.579357,42.6269831 L94.579357,39.1448531 L94.474739,39.1448531 C94.0388309,40.9510452 93.2803507,42.4359435 92.2080167,43.5908644 L91.8854447,43.0524802 C92.8618789,42.0451808 93.5506138,40.7426384 93.9690856,39.1448531 L92.2690438,39.1448531 L92.2690438,38.537 Z M105.920184,39.6050847 C105.60633,39.9524294 105.27504,40.2650395 104.926313,40.5342316 L104.595023,40.0305819 C105.571457,39.2751073 106.329937,38.2938588 106.853027,37.0868362 L107.428426,37.0868362 C107.864334,38.198339 108.631532,39.1622203 109.712585,39.9958475 L109.372576,40.5168644 C108.997695,40.2303051 108.666405,39.9263785 108.369987,39.6050847 L108.369987,40.1434689 L105.920184,40.1434689 L105.920184,39.6050847 Z M108.343833,39.5703503 C107.83818,38.9972316 107.437144,38.3720113 107.140727,37.6946893 C106.792,38.424113 106.399683,39.0493333 105.946338,39.5703503 L108.343833,39.5703503 Z M104.84785,44.1118814 L107.681253,44.1118814 C108.012543,43.1914181 108.30896,42.0451808 108.570505,40.6818531 L109.172058,40.8294746 C108.92795,42.062548 108.640251,43.1566836 108.291524,44.1118814 L109.607967,44.1118814 L109.607967,44.7110508 L104.84785,44.7110508 L104.84785,44.1118814 Z M105.649921,40.933678 C105.928902,41.6544181 106.17301,42.4880452 106.399683,43.4258757 L105.859157,43.5561299 C105.667357,42.7051356 105.41453,41.8975593 105.109395,41.1160339 L105.649921,40.933678 Z M106.992518,40.6818531 C107.227908,41.3678588 107.437144,42.1580678 107.628944,43.0524802 L107.079699,43.1827345 C106.922772,42.3751582 106.713537,41.5936328 106.451992,40.8468418 L106.992518,40.6818531 Z M103.871415,38.0246667 L101.76162,38.0246667 L101.76162,37.451548 L104.499123,37.451548 L104.080651,41.0291977 L104.621177,41.0291977 C104.621177,43.0090621 104.533996,44.1466158 104.368351,44.4505424 C104.193987,44.7457853 103.836543,44.9020904 103.287299,44.9020904 C103.086781,44.9020904 102.877545,44.8934068 102.668309,44.8760395 L102.502664,44.3202881 C102.8078,44.3550226 103.025754,44.3723898 103.147808,44.3723898 C103.56628,44.3723898 103.819106,44.233452 103.906288,43.9729435 C103.99347,43.6950678 104.045779,42.9048588 104.045779,41.5849492 L101.822647,41.5849492 L102.232401,38.6064689 L102.8078,38.6412034 L102.459073,41.0291977 L103.487816,41.0291977 L103.871415,38.0246667 Z M103.548843,42.357791 L103.548843,42.922226 C102.973445,43.1393164 102.328301,43.3129887 101.604693,43.4519266 L101.52623,42.8614407 C102.293428,42.7311864 102.973445,42.5661977 103.548843,42.357791 Z M114.401453,37.2170904 C114.950697,37.6512712 115.41276,38.0767684 115.787641,38.5022655 L115.360451,38.9364463 C115.020443,38.5196328 114.55838,38.085452 113.965545,37.6252203 L114.401453,37.2170904 Z M113.390146,39.7266554 L115.212242,39.7266554 L115.212242,43.5821808 C115.526096,43.3216723 115.866104,43.0264294 116.223549,42.6877684 L116.397912,43.3477232 C115.848668,43.8600565 115.264551,44.3116045 114.65428,44.7110508 L114.410171,44.1552994 C114.532225,44.0337288 114.601971,43.9034746 114.601971,43.7645367 L114.601971,40.3258249 L113.390146,40.3258249 L113.390146,39.7266554 Z M116.485094,40.7426384 L120.634939,40.7426384 L120.634939,41.3157571 C120.355958,42.1320169 119.902614,42.8353898 119.266188,43.4258757 C119.859023,43.8340056 120.58263,44.1900339 121.43701,44.5026441 L121.097002,45.0410282 C120.190313,44.6763164 119.423115,44.2681864 118.812843,43.7992712 C118.11539,44.3202881 117.252292,44.7284181 116.232267,45.0410282 L115.883541,44.5113277 C116.851257,44.2247684 117.662046,43.8513729 118.315908,43.3911412 C117.653328,42.7832881 117.208701,42.1059661 116.964593,41.3504915 L116.485094,41.3504915 L116.485094,40.7426384 Z M117.557428,41.3504915 C117.7841,41.9757119 118.185136,42.5401469 118.760534,43.035113 C119.318497,42.5488305 119.736969,41.9930791 120.01595,41.3504915 L117.557428,41.3504915 Z M117.156392,37.3907627 L120.085695,37.3907627 L120.085695,39.2664237 C120.085695,39.4835141 120.199031,39.5964011 120.425704,39.5964011 L121.227775,39.5964011 L121.227775,40.1695198 L120.268777,40.1695198 C119.728251,40.1695198 119.466706,39.9090113 119.466706,39.396678 L119.466706,37.9812486 L117.775382,37.9812486 L117.775382,38.2851751 C117.775382,39.2056384 117.322038,39.9176949 116.432785,40.4213446 L116.014313,39.9437458 C116.772793,39.5703503 117.156392,39.0406497 117.156392,38.3546441 L117.156392,37.3907627 Z M127.843357,39.6571864 L130.205979,39.6571864 L130.205979,37.0434181 L130.851123,37.0434181 L130.851123,39.6571864 L133.091691,39.6571864 L133.091691,40.2824068 L130.851123,40.2824068 L130.851123,45.0323446 L130.205979,45.0323446 L130.205979,40.2824068 L127.843357,40.2824068 L127.843357,39.6571864 Z M126.134597,37.1389379 C126.727432,37.5818023 127.224367,38.0246667 127.625403,38.4762147 L127.198213,38.9103955 C126.83205,38.4848983 126.326397,38.0333503 125.698689,37.564435 L126.134597,37.1389379 Z M125.114572,39.7092881 L126.997695,39.7092881 L126.997695,43.5734972 C127.311549,43.3129887 127.660276,43.0177458 128.026438,42.6704011 L128.183365,43.3129887 C127.642839,43.8340056 127.058722,44.2942373 126.439733,44.7023672 L126.195624,44.1379322 C126.326397,44.0337288 126.396142,43.9121582 126.396142,43.7732203 L126.396142,40.3084576 L125.114572,40.3084576 L125.114572,39.7092881 Z" id="极验用户体验设计"></path>
                    <path d="M57.1750146,21.7505424 C57.1750146,27.3236271 53.9535031,30.3634915 48.3017286,30.3634915 C46.2953486,30.3634915 43.5824969,30.1664633 42.7347307,30.0257288 C42.2543299,29.9412881 42,29.716113 42,29.1531751 L42,10.2103164 C42,9.64737853 42.2543299,9.42220339 42.7347307,9.33776271 C43.5824969,9.19702825 46.2953486,9 48.3017286,9 C53.9535031,9 57.1750146,12.0398644 57.1750146,17.6129492 L57.1750146,21.7505424 Z M53.2752902,21.7505424 L53.2752902,17.6129492 C53.2752902,13.3909153 51.1276159,12.2931864 48.3017286,12.2931864 C47.2561503,12.2931864 46.5214196,12.3494802 45.9279833,12.3776271 L45.9279833,26.9858644 C46.5214196,27.0140113 47.2561503,27.0703051 48.3017286,27.0703051 C51.1276159,27.0703051 53.2752902,25.9725763 53.2752902,21.7505424 Z M73.3108309,29.3783503 C73.3108309,29.7724068 73.1695365,29.9131412 72.7456534,29.969435 C71.8413695,30.1101695 70.7392735,30.3634915 67.3764676,30.3634915 C63.7028142,30.3634915 60.8486681,29.3783503 60.8486681,24.5933785 L60.8486681,14.770113 C60.8486681,9.98514124 63.7028142,9 67.3764676,9 C70.7392735,9 71.8413695,9.25332203 72.7456534,9.3940565 C73.1695365,9.45035028 73.3108309,9.59108475 73.3108309,9.98514124 L73.3108309,11.7865424 C73.3108309,12.0961582 73.056501,12.3494802 72.7456534,12.3494802 L66.9808434,12.3494802 C65.3418288,12.3494802 64.7483925,12.9124181 64.7483925,14.770113 L64.7483925,17.8099774 L72.406547,17.8099774 C72.7173946,17.8099774 72.9717244,18.0632994 72.9717244,18.3729153 L72.9717244,20.3994915 C72.9717244,20.7091073 72.7173946,20.9624294 72.406547,20.9624294 L64.7483925,20.9624294 L64.7483925,24.5933785 C64.7483925,26.4510734 65.3418288,27.0140113 66.9808434,27.0140113 L72.7456534,27.0140113 C73.056501,27.0140113 73.3108309,27.2673333 73.3108309,27.5769492 L73.3108309,29.3783503 Z M89.8422714,24.480791 C89.8422714,27.3236271 88.0619624,30.3634915 82.4101879,30.3634915 C80.2907724,30.3634915 78.7647933,30.1664633 77.4083674,29.8568475 C77.1257787,29.8005537 76.8714489,29.6035254 76.8714489,29.2939096 L76.8714489,27.2673333 C76.8714489,26.9577175 77.1257787,26.7325424 77.4083674,26.7325424 L77.4648852,26.7325424 C78.5952401,26.8732768 81.4211273,27.0140113 82.4667056,27.0140113 C84.9817453,27.0140113 85.7447349,26.1133107 85.7447349,24.480791 C85.7447349,23.3830621 85.2078163,22.8201243 83.3427307,21.7223955 L79.6125595,19.498791 C76.9844843,17.9507119 76.2780125,16.3181921 76.2780125,14.3479096 C76.2780125,11.2517514 78.0865804,9 83.3427307,9 C85.2078163,9 87.8076326,9.28146893 88.7684342,9.50664407 C89.051023,9.56293785 89.2770939,9.7599661 89.2770939,10.041435 L89.2770939,12.1243051 C89.2770939,12.405774 89.0792818,12.6309492 88.7966931,12.6309492 L88.7401754,12.6309492 C86.8750898,12.4620678 85.0100042,12.3494802 83.1731775,12.3494802 C81.0820209,12.3494802 80.2059958,13.0812994 80.2059958,14.3479096 C80.2059958,15.2767571 80.6863967,15.8396949 82.5232234,16.8529831 L85.9142881,18.7388249 C89.0227641,20.4557853 89.8422714,22.2571864 89.8422714,24.480791 Z M97.1613194,29.5753785 C97.1613194,29.8849944 96.9069896,30.1383164 96.596142,30.1383164 L93.7985136,30.1383164 C93.487666,30.1383164 93.2333361,29.8849944 93.2333361,29.5753785 L93.2333361,9.7599661 C93.2333361,9.45035028 93.487666,9.22517514 93.7985136,9.22517514 L96.596142,9.22517514 C96.9069896,9.22517514 97.1613194,9.45035028 97.1613194,9.7599661 L97.1613194,29.5753785 Z M115.105704,29.2094689 C115.105704,29.5753785 114.93615,29.8005537 114.568785,29.8849944 C113.155841,30.1664633 111.319015,30.3634915 108.408351,30.3634915 C105.356392,30.3634915 100.834973,28.3650621 100.834973,21.7223955 L100.834973,17.6692429 C100.834973,10.9984294 105.130322,9 108.493127,9 C111.205979,9 113.636242,9.33776271 114.568785,9.50664407 C114.93615,9.59108475 115.105704,9.73181921 115.105704,10.0977288 L115.105704,11.9835706 C115.105704,12.3776271 114.992668,12.5746554 114.540526,12.5746554 L114.455749,12.5746554 C113.155841,12.4620678 111.205979,12.3494802 108.493127,12.3494802 C106.599783,12.3494802 104.791215,13.6723842 104.791215,17.6692429 L104.791215,21.7223955 C104.791215,25.7192542 106.741077,27.0140113 108.408351,27.0140113 C109.453929,27.0140113 110.329954,26.9858644 111.205979,26.9295706 L111.205979,19.752113 C111.205979,19.4424972 111.43205,19.1891751 111.742898,19.1891751 L114.540526,19.1891751 C114.851374,19.1891751 115.105704,19.4424972 115.105704,19.752113 L115.105704,29.2094689 Z M134.971691,29.5753785 C134.971691,29.8849944 134.74562,30.1383164 134.434772,30.1383164 L131.524109,30.1383164 C131.213261,30.1383164 131.015449,29.8849944 131.015449,29.5753785 L131.015449,16.8811299 C131.015449,13.6723842 129.885094,12.3776271 127.172242,12.3776271 C125.759299,12.3776271 124.205061,12.4902147 123.272518,12.6028023 L123.272518,29.5753785 C123.272518,29.8849944 123.046447,30.1383164 122.735599,30.1383164 L119.881453,30.1383164 C119.570605,30.1383164 119.344534,29.8849944 119.344534,29.5753785 L119.344534,10.9139887 C119.344534,9.87255367 119.655382,9.61923164 120.531407,9.47849718 C122.057386,9.25332203 125.137603,9 126.776618,9 C132.032768,9 134.971691,10.8858418 134.971691,16.8811299 L134.971691,29.5753785 Z" id="DESIGN"></path>
                </g>
            </g>
        </g>
    </g>
</svg>